<svg width="21" height="21" viewBox="0 0 21 21" fill="none" xmlns="http://www.w3.org/2000/svg">
<path d="M10.5 0.25C10.6816 0.25 10.856 0.32184 10.9844 0.450195C11.1127 0.578567 11.1845 0.753031 11.1846 0.93457V9.81543H20.0654C20.247 9.81549 20.4214 9.88726 20.5498 10.0156C20.6782 10.144 20.75 10.3184 20.75 10.5L20.7363 10.6338C20.7101 10.7655 20.6461 10.888 20.5498 10.9844C20.4214 11.1127 20.247 11.1845 20.0654 11.1846H11.1846V20.0654C11.1845 20.247 11.1127 20.4214 10.9844 20.5498C10.856 20.6782 10.6816 20.75 10.5 20.75C10.3184 20.75 10.144 20.6782 10.0156 20.5498C9.88725 20.4214 9.81549 20.247 9.81543 20.0654V11.1846H0.93457C0.753031 11.1845 0.578567 11.1127 0.450195 10.9844C0.32184 10.856 0.25 10.6816 0.25 10.5C0.25 10.3184 0.32184 10.144 0.450195 10.0156C0.578567 9.88725 0.753031 9.81549 0.93457 9.81543H9.81543V0.93457C9.81549 0.753031 9.88725 0.578567 10.0156 0.450195C10.144 0.32184 10.3184 0.25 10.5 0.25Z" fill="black" stroke="black" stroke-width="0.5"/>
</svg>
